<?xml version="1.0" encoding="utf-8"?>
<!DOCTYPE svg PUBLIC "-//W3C//DTD SVG 1.1//EN" "http://www.w3.org/Graphics/SVG/1.1/DTD/svg11.dtd">
<svg version="1.1" xmlns="http://www.w3.org/2000/svg" xmlns:xlink="http://www.w3.org/1999/xlink" x="0px" y="0px" preserveAspectRatio="xMidYMid meet" width="1em" height="1em" viewBox="0 0 1000 1000" xml:space="preserve">
	<g>
		<path d="M88.4,990h599.2c33.5,0,57-27.3,57-60.9v-3.9c-7.8,4.7-28.9,7-45.3,7c-41.4,0-78.8-16.4-107.7-45.3c-172.4-172.4-172.4-172.4-174-173.2c-28.9-31.2-44.5-74.1-41.4-116.3c2.3-38.2,19.5-74.9,48.4-102.2c7-7,122.5-122.5,167-167c29.7-29.6,66.3-45.3,107.7-45.3c16.4,0,37.5,2.3,45.3,7.8v-71.8c0-33.5-23.4-64-57-64h-38.2c-3.9-7.8-8.6-14-14.8-21.1c-18.7-22.6-46-33.5-74.1-33.5h-35.1c-7.8-15.6-18-32.8-31.2-46c-14-14-29.6-25-47.6-32.8C427.8,13.9,408.3,10,388,10c-20.3,0-39.8,3.9-58.5,11.7c-17.9,7.8-34.3,18.7-47.6,32.8c-13.3,13.3-24.2,30.4-31.2,46h-35.1c-26.5,0-53.8,9.4-73.3,29.6c-7.8,7.8-14.8,17.2-19.5,25H89.2c-34.3,0-62.4,30.4-62.4,64v710.8C26.8,962.7,54.9,990,88.4,990z M175,205.1c0-23.4,17.2-42.1,39.8-42.1h82.7c0,0,0-2.3,0-3.1c1.6-49.2,41.4-89,90.5-89c49.2,0,88.9,39.8,89.7,88.2c0,0.8,0,3.1,0,3.1h82.7c22.6,0,35.9,17.9,35.9,42.1v14c0,23.4-13.3,37.5-35.9,37.5H214.8c-22.6,0-39.8-14-39.8-37.5V205.1L175,205.1z"/><path d="M477.8,159.8c0,0.8,0,3.1,0,3.1S477.8,160.6,477.8,159.8c-0.8-49.2-40.6-89-89.7-89C436.4,70.9,476.2,111.4,477.8,159.8z"/><path d="M903.8,537.5H752.4h-46l49.9-54.6c17.9-18.7,21.1-33.6,21.1-51.5c0-36.7-33.6-70.2-70.2-70.2c-18.7,0-35.1,7-48.4,20.3c0,0-165.4,166.2-167,167.8c-31.2,29.7-30.4,91.3,0,120.9c1.6,1.6,167,167.8,167,167.8c13.3,13.3,29.6,20.3,48.4,20.3c36.7,0,70.2-33.6,70.2-70.2c0-18.7-3.9-34.3-21.1-52.3l-49.9-57.7h46h151.4c38.2,0,69.4-31.2,69.4-70.2C972.4,569.4,942,537.5,903.8,537.5z M532.4,596C532.4,596,533.2,596,532.4,596L532.4,596z"/>
		<path d="M533.2,596C533.2,596,532.4,596,533.2,596C532.4,596,532.4,596,533.2,596z"/>
	</g>
</svg>
